<?xml version="1.0" encoding="UTF-8" standalone="no"?>
<!-- Created with Inkscape (http://www.inkscape.org/) -->

<svg
   width="138.09067mm"
   height="21.627327mm"
   viewBox="0 0 138.09067 21.627327"
   version="1.1"
   id="svg1"
   sodipodi:docname="fintech.svg"
   inkscape:version="1.4 (e7c3feb100, 2024-10-09)"
   xmlns:inkscape="http://www.inkscape.org/namespaces/inkscape"
   xmlns:sodipodi="http://sodipodi.sourceforge.net/DTD/sodipodi-0.dtd"
   xmlns="http://www.w3.org/2000/svg"
   xmlns:svg="http://www.w3.org/2000/svg">
  <sodipodi:namedview
     id="namedview1"
     pagecolor="#ffffff"
     bordercolor="#000000"
     borderopacity="0.25"
     inkscape:showpageshadow="2"
     inkscape:pageopacity="0.0"
     inkscape:pagecheckerboard="0"
     inkscape:deskcolor="#d1d1d1"
     inkscape:document-units="mm"
     inkscape:zoom="1.5859787"
     inkscape:cx="365.70479"
     inkscape:cy="105.92828"
     inkscape:window-width="3440"
     inkscape:window-height="1386"
     inkscape:window-x="0"
     inkscape:window-y="31"
     inkscape:window-maximized="1"
     inkscape:current-layer="layer1" />
  <defs
     id="defs1" />
  <g
     id="layer1"
     transform="translate(-34.419955,-137.68634)">
    <path
       style="font-weight:300;font-size:27.8639px;line-height:3.3;font-family:N27;-inkscape-font-specification:'N27 Light';text-align:center;letter-spacing:-2.89806px;text-anchor:middle;fill:#302f32;stroke-width:3.74073;stroke-dasharray:11.2223, 3.74073;stroke-opacity:0.70119"
       d="m 73.012179,158.42192 v -19.51017 h 11.646239 v 1.7551 h -9.755086 v 7.30611 h 8.897945 v 1.7551 h -8.897945 v 8.69386 z m 12.707356,0 v -1.78231 h 4.204075 v -15.94555 h -4.204075 v -1.78231 h 10.299303 v 1.78231 h -4.204075 v 15.94555 h 4.204075 v 1.78231 z m 12.476064,0 v -19.51017 h 3.591831 l 8.92516,19.0884 v -19.0884 h 1.86394 v 19.51017 h -3.74149 l -8.7755,-19.00677 v 19.00677 z m 15.564491,-17.75507 v -1.7551 h 13.64624 v 1.7551 H 121.556 v 17.75507 h -1.91837 v -17.75507 z m 14.84341,17.75507 v -19.51017 h 11.64624 v 1.7551 h -9.75508 v 6.80271 h 8.89794 v 1.7551 h -8.89794 v 7.44216 h 9.75508 v 1.7551 z m 12.42164,-7.91835 v -3.67347 q 0,-3.97278 1.94558,-6.06801 1.94557,-2.09524 5.57822,-2.09524 3.37414,0 5.2789,1.80952 1.90476,1.79592 2.16326,5.07482 h -1.91836 q -0.55782,-5.07482 -5.5238,-5.07482 -5.63264,0 -5.63264,6.35373 v 3.67347 q 0,6.35373 5.63264,6.35373 4.96598,0 5.46938,-4.84353 h 1.91836 q -0.29932,3.18367 -2.19047,4.92516 -1.89115,1.72789 -5.19727,1.72789 -3.63265,0 -5.57822,-2.09524 -1.94558,-2.09523 -1.94558,-6.06801 z m 16.85701,7.91835 v -19.51017 h 1.89115 v 8.58502 h 10.23128 v -8.58502 h 1.89115 v 19.51017 h -1.89115 v -9.11563 H 159.7733 v 9.11563 z"
       id="text1"
       aria-label="       FINTECH " />
    <g
       id="g10"
       transform="matrix(0.13940433,0,0,0.13940433,-30.701523,115.04039)">
      <g
         id="g2">
        <polygon
           style="fill:#302f32;fill-opacity:1"
           points="709.141,181.572 640.333,292.539 640.333,317.588 732.859,168.372 576.284,168.372 584.468,181.572 "
           id="polygon1" />
        <polygon
           style="fill:#302f32;fill-opacity:1"
           points="623.716,311.664 615.532,298.464 490.859,298.464 559.667,187.497 559.667,162.448 467.141,311.664 "
           id="polygon2" />
      </g>
      <polygon
         style="fill:#eaab41"
         points="559.667,187.497 640.333,317.589 640.333,317.588 640.333,292.539 559.667,162.448 "
         id="polygon3" />
    </g>
  </g>
</svg>
